<?xml version="1.0" encoding="UTF-8" standalone="no"?>
<!-- Created with Inkscape (http://www.inkscape.org/) -->

<svg
   width="181.47635mm"
   height="80.135101mm"
   viewBox="0 0 181.47635 80.135101"
   version="1.1"
   id="svg5"
   inkscape:version="1.1.2 (b8e25be8, 2022-02-05)"
   sodipodi:docname="nwmlogofullblack.svg"
   xmlns:inkscape="http://www.inkscape.org/namespaces/inkscape"
   xmlns:sodipodi="http://sodipodi.sourceforge.net/DTD/sodipodi-0.dtd"
   xmlns="http://www.w3.org/2000/svg"
   xmlns:svg="http://www.w3.org/2000/svg">
  <sodipodi:namedview
     id="namedview7"
     pagecolor="#ffffff"
     bordercolor="#666666"
     borderopacity="1.0"
     inkscape:pageshadow="2"
     inkscape:pageopacity="0.0"
     inkscape:pagecheckerboard="0"
     inkscape:document-units="mm"
     showgrid="false"
     inkscape:snap-global="false"
     inkscape:zoom="1.4142136"
     inkscape:cx="341.88612"
     inkscape:cy="153.79572"
     inkscape:window-width="1920"
     inkscape:window-height="957"
     inkscape:window-x="1440"
     inkscape:window-y="30"
     inkscape:window-maximized="0"
     inkscape:current-layer="layer2"
     fit-margin-top="0"
     fit-margin-left="0"
     fit-margin-right="0"
     fit-margin-bottom="0" />
  <defs
     id="defs2">
    <rect
       x="-386.08029"
       y="-254.55844"
       width="41.012192"
       height="93.338097"
       id="rect120272" />
    <rect
       x="22.627417"
       y="260.2153"
       width="702.86414"
       height="89.095451"
       id="rect11441" />
  </defs>
  <g
     inkscape:label="Layer 1"
     inkscape:groupmode="layer"
     id="layer1"
     transform="translate(-14.261825)">
    <path
       style="fill:#000000;fill-opacity:1;stroke:none;stroke-width:0.17794"
       d="m 60.657859,5.1290263 c -0.0021,0.05307 0.202521,0.201128 0.202521,0.201128 2.182976,1.439614 4.18036,2.556277 6.04927,4.448512 0.568874,0.5759947 1.563205,1.4309967 1.608048,2.3132297 0.04291,0.841304 -1.09522,1.638293 -1.65182,2.121762 -0.738634,0.720476 -3.231402,3.003458 -4.256339,4.106866 -4.280541,4.674503 -8.731047,8.893788 -12.957496,13.627014 -1.275793,1.616169 -4.003938,4.477278 -5.16219,6.479561 4.571226,-1.27538 8.434181,-2.136398 13.465475,-3.378736 1.413655,-1.133697 2.560166,-3.220006 3.598823,-4.173121 1.724133,-1.693934 5.901958,-4.457711 9.448848,-5.827314 5.680393,-2.1933 11.803325,-3.046883 17.794052,-3.929465 7.658385,-1.128144 15.413569,-2.073185 23.132279,-2.604694 l 17.99422,-1.071315 5.42949,-0.09953 c -2.68319,-2.153829 -6.98355,-6.343631 -10.78993,-7.292189 -5.0432,-1.1576287 -11.2816,-0.2546337 -16.37053,0.231499 -11.422718,1.09149 -23.021245,2.485298 -34.164596,5.368467 7.215311,-9.3545467 19.787303,-9.5048307 30.716996,-10.3713597 2.59385,-0.20564 9.28423,-0.755475 11.29924,-0.883384 -0.60162,-1.157285 -2.95222,-1.940831 -4.11489,-2.328047 -3.22179,-1.073085 -6.59928,-1.567261 -9.96468,-1.927554 -14.670963,-0.690849 -29.421789,1.20319 -41.099907,4.919188 M 23.13698,55.331455 c 1.593784,0.256408 3.614579,-0.679908 5.160277,-1.088283 3.42075,-0.903586 6.846625,-1.657521 10.320558,-2.327644 9.285645,-1.791145 18.686604,-2.278173 28.114604,-2.278173 16.258435,0 32.169881,4.364883 48.221901,6.456049 11.09496,1.445222 23.03261,1.724948 33.63077,-2.363413 -5.01011,4.906359 -14.20073,6.740381 -20.99699,7.295558 0,0 -0.35199,0.07877 -0.23104,0.189762 0.13716,0.125934 0.23104,0.131393 0.23104,0.131393 8.06523,-0.57897 17.84942,-0.177187 17.84942,-0.177187 0,0 2.22238,0.140358 3.47301,0.282549 1.19562,-0.643487 2.03618,-2.325323 2.775,-3.273579 1.97655,-2.536724 5.01824,-6.541854 7.11082,-8.983377 6.0338,-7.039505 12.8553,-13.58922 18.43718,-18.546694 2.37264,-2.092756 7.54943,-6.753735 7.54943,-6.753735 1.79614,-1.628454 2.08006,-2.432634 2.08006,-2.432634 l -2.6434,-0.158031 -6.06387,-0.192217 c 0,0 -13.72257,-0.329008 -22.98686,0.039 -11.41668,0.781865 -22.76679,1.613209 -34.16459,2.833523 -5.63591,0.603394 -11.34834,1.019067 -16.90435,2.202371 -5.790009,1.232952 -10.143338,4.902439 -15.658777,6.662985 -6.79413,2.168564 -14.201618,2.439035 -21.174927,3.833555 -8.161959,1.632065 -16.300427,3.305775 -24.377857,5.325225 -3.512011,0.877962 -7.902343,1.372455 -11.032317,3.265562 -3.417778,2.067138 -6.625974,6.70747 -8.719092,10.057382 m 8.007331,3.202924 c 2.266728,0.651259 6.464437,-0.304111 8.007326,-0.339862 5.232872,-0.358374 10.616646,-0.304987 15.836704,0.192179 14.380272,1.369427 28.430989,5.201915 42.88368,5.834855 6.479709,0.28363 12.520259,-1.274416 18.861719,-2.12835 0,0 0.22859,-0.101127 0.3392,-0.241639 0.0737,-0.09351 -0.3392,-0.114245 -0.3392,-0.114245 -9.34082,0 -18.631993,-1.477611 -27.758751,-3.418415 -6.105136,-1.298066 -12.126113,-3.011457 -18.327873,-3.826957 -6.601594,-0.868176 -13.320102,-0.787212 -19.929347,-0.07972 -4.724674,0.505885 -9.255817,1.238189 -13.868568,2.391425 -1.700044,0.424915 -4.285856,0.669333 -5.70489,1.730753 z"
       id="path836"
       sodipodi:nodetypes="ccscccccccccccccccscccccccscccscccccccccccscccccccccccscccccc" />
  </g>
  <g
     inkscape:groupmode="layer"
     id="layer2"
     inkscape:label="Layer 2"
     transform="translate(-14.261825)">
    <text
       xml:space="preserve"
       transform="matrix(0.26458333,0,0,0.26458333,5.6612772,-4.1820099)"
       id="text11439"
       style="font-size:72px;line-height:1;font-family:Gotham;-inkscape-font-specification:Gotham;letter-spacing:1px;white-space:pre;shape-inside:url(#rect11441);fill:#000000;fill-opacity:1"
       x="290.98801"
       y="0"><tspan
         x="26.458008"
         y="317.81484"
         id="tspan11980"><tspan
           style="font-weight:bold;-inkscape-font-specification:'Gotham Bold';text-align:center;text-anchor:middle"
           id="tspan11978">NorthWake Marine</tspan></tspan></text>
    <text
       xml:space="preserve"
       transform="scale(0.26458333)"
       id="text120270"
       style="font-size:40px;line-height:1.25;font-family:Gotham;-inkscape-font-specification:Gotham;letter-spacing:2px;white-space:pre;shape-inside:url(#rect120272)" />
  </g>
</svg>
